<?xml version="1.0" encoding="utf-8"?>
<!-- Generator: Adobe Illustrator 25.0.0, SVG Export Plug-In . SVG Version: 6.00 Build 0)  -->
<svg version="1.1" xmlns="http://www.w3.org/2000/svg" xmlns:xlink="http://www.w3.org/1999/xlink" x="0px" y="0px"
	 viewBox="0 0 1500 500" style="enable-background:new 0 0 1500 500;" xml:space="preserve">
<style type="text/css">
	.st0{clip-path:url(#SVGID_2_);}
	.st1{fill:none;stroke:#FFFFFF;stroke-width:12;stroke-linecap:round;stroke-linejoin:round;stroke-miterlimit:10;}
</style>
<g id="Layer_2">
	<g>
		<g>
			<defs>
				<rect id="SVGID_1_" width="1500" height="500"/>
			</defs>
			<clipPath id="SVGID_2_">
				<use xlink:href="#SVGID_1_"  style="overflow:visible;"/>
			</clipPath>
			<g class="st0">
			</g>
		</g>
	</g>
</g>
<g id="Layer_1">
	<g>
		<g id="Layer_2_2_">
			<g>
				<g>
					<path class="st1" d="M1016.05,336.54c-1.8-5.15-3.09-6.37-4.7-9.47c-4.15-6.01-8.05-10.32-17.04-8.1
						c-11.06,2.72-19.3,9.57-25.86,18.51c-10.7,14.57-26.11,21-42.99,23.38c-13.91,1.96-25.46-3.2-31.04-17.48"/>
					<path class="st1" d="M893.68,344.1c-3.4,2.06-6.97,3.84-10.43,5.79c-12.56,7.1-25.19,2.64-33.92-11.74
						c-3.49-5.75-6.42-11.83-9.68-17.72c-2.24-4.05-4.62-7.99-8.86-10.38c-7.87-4.42-14.81-2.13-20.77,6.64
						c-2.36,3.46-4.6,7.31-6.34,11c-0.8,1.7-4.98,9.29-8.54,14.63c0,12.47,0,10.69,0.85,22.5c0.11,1.47,0.02,2.96,0.02,4.44"/>
					<path class="st1" d="M888,81.68c0,19.91,0,36.5-0.28,55.32c0.69,8.9,0.28,16.58-0.82,26.53c-1.11,8.85-1.11,16.59-1.45,29.49
						c5.48,8.14,12.05,15.7,22.29,12.43c10.38-3.31,16.52-12.55,14.91-21.85"/>
					<path class="st1" d="M776.88,191.73c6.64,18.21,22.81,20.62,41.39,15.4c13.31-4.89,15.32-8.58,22.16-11.53
						c5.01-2.16,2.72-1.16,5.99-1.65"/>
					<path class="st1" d="M664.43,345.58c-1.02,7.32-1.23,14.79-5.14,21.48c-4.11,7.02-12.09,10.72-20.02,8.85
						c-7.08-1.66-10.64-6.74-13.27-13.99c-7.13-19.6-1.17-11.3-3.85-16.54c1.06-5.29,1.34-10.93,3.81-16.08
						c4.44-9.25,10.05-12.36,19.97-11.1c6.57,0.83,13.57,8.46,14.77,16.28c0.52,3.37-0.08,7.05,3.31,9.89
						c5.52-0.91,11.15,0.06,16.69,1.93c8.71,2.93,15.42-0.15,20.05-8.07c5.09-8.69,10.09-17.53,17.68-24.46
						c3.18-2.91,7.33-5.76,11.08-2.93c1.59,1.2,5.15,10.11,5.15,10.11c1.06,4.08,2.23,6.88,3.56,12.47
						c0.68,2.86,1.78,5.67,1.78,7.13c0,8.91,0,28.45,0,28.45"/>
					<path class="st1" d="M894.42,342.62c-7.53-12.55-4.78-24.59,3.12-35.4c6.83-9.35,15.94-9.88,23.43-4.44
						c6.12,4.45,4.54,14.88-2.06,22.89c-6.68,8.11-15.67,12.72-24.49,17.69"/>
					<path class="st1" d="M884.17,163.62c-5.18-0.49-13.43-0.01-18.29,1.02c-9.68,2.04-15.49,11.06-17.91,20.44
						c-0.71,2.74-1.07,5.42-1.7,7.99c12.7,11.15,18.05,11.75,31.99,3.87c2.11-1.19,3.95-3.07,6.65-2.98"/>
					<path class="st1" d="M1017.16,363.09c0-11.06-0.13-15.44,0-23.23c1.11-2.21,8.85-15.49,15.49-18.8
						c13.27-5.53,19.05,3.44,19.91,4.42c2.06,2.36,7.24,14.75,13.54,21.56c10.17,10.96,19.13,10.26,27.96-2.3"/>
					<path class="st1" d="M739.53,338.75c2.21-4.42,3.88-8.78,6.64-13.27c1.11-1.8,3.11-4.66,4.43-6.32
						c9.17-11.5,24.21-9.79,32.07,3c4.42,5.53,8.91,13.04,11.87,19.72"/>
					<path class="st1" d="M660.61,341.88c-12.37,0.39-23.52,6.1-35.51,8.14"/>
				</g>
			</g>
			<path class="st1" d="M454.41,144.57c6.91,10.96,6.91,24.08,5.55,36.57c-1.3,11.84-0.26,22.53,2.45,33.81
				c4.58,19.05,21.89,26.5,33.07,7.42c15.06-19.97,16.46-56.63,16.46-66.59l2.21,40.92c2.21,14.38,6.08,20.09,11.06,28.76
				c3.12,5.43,8.07,8.09,12.2,9.72c13.93,5.49,30.98-2.9,38.39-18.92c3.57-7.73,6.55-16.01,8.29-24.82l0.85-0.27
				c3.22-16.42,15.19-39.58,10.99-56.92c-5.63-23.25-21.99-24.06-34.01-13.07c-0.22,0.2-0.43,0.41-0.64,0.63
				c-3.06,3.2-4.76,7.43-5.28,11.83c-2.41,20.32,6.93,42.58,28.1,56.34c0.85,0.09-0.25,0.09-0.25,0.09l3.32,2.21
				c11.57,10.8,22.4,29.13,36.53,26.03c11.43-2.51,12.47-10.69,19.6-24.94l1.9-7.56c3.53,1.57,5.91,4.3,8.22,7.34
				c2.62,3.46,5.65,6.68,8.84,9.63c6.82,6.32,14.33,7.21,22.11,2.19c9.03-5.82,15.53-13.55,18.73-24.29
				c2.43-8.13,4.83-16.64-2.17-25.64l-1-1c1.93,0.94-2-1,6,0c2,0,9.2,0.31,14,0.37c5.99,0.08,12.37,0.1,18.12-2.65l-1.11,2.22
				c3.25,8.22,1,16.78,1.33,25.16c0.16,4.06,0.55,8.06,1.73,11.8c3.06,9.71,11.52,13.69,20.53,8.74
				c11.42-6.26,24.24-10.14,34.08-19.12c3.47-3.16,6.83-6.59,9.57-10.38c4.17-5.76,2.83-15.71-2.13-19.91
				c-4.48-3.79-14.4-2.69-19.98,2.22c-9.99,8.79-12.09,24.38-5.18,38.47"/>
			<circle class="st1" cx="644.17" cy="156.85" r="0.89"/>
			<path class="st1" d="M625.41,352.02c-14.13,3.1-21.64-0.85-33.21-11.65l-3.32-2.21c0,0,1.11,0,0.25-0.09
				c-21.16-13.76-30.5-36.02-28.1-56.34c0.52-4.4,2.23-8.62,5.28-11.83c0.21-0.22,0.42-0.43,0.64-0.63
				c12.02-10.99,28.38-10.18,34.01,13.07c4.2,17.34-7.77,40.5-10.99,56.92l-0.85,0.27c-1.74,8.81-4.71,17.1-8.29,24.82
				c-7.41,16.02-24.45,24.41-38.39,18.92c-4.13-1.63-9.08-4.29-12.2-9.72c-4.98-8.67-8.85-14.38-11.06-28.76l-2.21-40.92
				c0,9.95-1.4,46.61-16.46,66.59c-11.18,19.08-28.49,11.63-33.07-7.42c-2.71-11.28-3.75-21.97-2.45-33.81
				c1.37-12.49,1.36-25.61-5.55-36.57"/>
		</g>
	</g>
</g>
</svg>
